<?xml version="1.0" ?><!DOCTYPE svg  PUBLIC '-//W3C//DTD SVG 1.1//EN'  'http://www.w3.org/Graphics/SVG/1.1/DTD/svg11.dtd'><svg height="512px" style="shape-rendering:geometricPrecision; text-rendering:geometricPrecision; image-rendering:optimizeQuality; fill-rule:evenodd; clip-rule:evenodd" version="1.1" viewBox="0 0 512 512" width="512px" xml:space="preserve" xmlns="http://www.w3.org/2000/svg" xmlns:xlink="http://www.w3.org/1999/xlink"><defs><style type="text/css">
   <![CDATA[
    .fil9 {fill:#FEFEFE}
    .fil2 {fill:#A85637}
    .fil0 {fill:#BE663A}
    .fil1 {fill:#C5744A}
    .fil6 {fill:#D07142}
    .fil8 {fill:#E37338}
    .fil5 {fill:#EC7E3F}
    .fil3 {fill:#EC874C}
    .fil7 {fill:#ED834A}
    .fil4 {fill:#F79B66}
   ]]>
  </style></defs><g id="Layer_x0020_1"><g id="_428793864"><path class="fil0" d="M324 436c95,-63 143,-95 143,-95 -94,-51 -141,-76 -141,-76 -1,114 -2,171 -2,171z"/><path class="fil1" d="M326 265c-95,63 -143,95 -143,95 94,51 141,76 141,76 1,-114 2,-171 2,-171z"/><path class="fil2" d="M466 341c-95,63 -143,95 -143,95 94,51 141,76 141,76 1,-114 2,-171 2,-171z"/><path class="fil3" d="M183 360c95,-63 143,-95 143,-95 -94,-51 -141,-76 -141,-76 -1,114 -2,171 -2,171z"/><path class="fil4" d="M185 189c-95,63 -143,95 -143,95 94,51 141,76 141,76 1,-114 2,-171 2,-171z"/><path class="fil5" d="M328 94c-95,63 -143,95 -143,95 94,51 141,76 141,76 1,-114 2,-171 2,-171z"/><path class="fil6" d="M468 170c-95,63 -143,95 -143,95 94,51 141,76 141,76 1,-114 2,-171 2,-171z"/><path class="fil7" d="M470 0c-95,63 -143,95 -143,95 94,51 141,76 141,76 1,-114 2,-171 2,-171z"/><path class="fil8" d="M326 266c95,-63 143,-95 143,-95 -94,-51 -141,-76 -141,-76 -1,114 -2,171 -2,171z"/><path class="fil9" d="M407 244l-7 0 0 0c0,0 -1,0 -1,0 -12,0 -14,-10 -14,-10l0 0c-1,-33 -26,-59 -61,-59l0 0 -28 0 0 0c-34,0 -62,27 -62,62 0,0 0,0 0,0l0 0 0 62 0 0c0,34 27,61 62,62l0 0 62 0 0 0c31,-1 61,-27 61,-61l0 0 0 -41c0,-7 -6,-12 -13,-12zm-113 -24c0,0 0,0 0,0l0 0 34 0 0 0c7,0 11,6 11,12 0,6 -4,11 -11,11l0 0 -34 0c0,0 0,0 0,0 -6,0 -12,-5 -12,-11 0,-6 7,-12 13,-12zm63 93l0 0 -63 0 0 0c0,0 0,0 0,0 -6,0 -12,-6 -12,-12 0,-6 6,-11 12,-11 0,0 0,0 0,0l0 0 64 0 0 0c7,0 11,5 11,12 0,6 -4,12 -11,12z"/></g></g></svg>